# xmcd
# 
# Track frame offsets:
#     150
#     12697
#     29761
#     40377
#     51370
#     68249
#     79302
#     98499
#     110990
#     124261
#     135855
#     145827
#     161678
#     170626
#     179940
#     194025
#     203482
#     215773
#     227888
#     241997
#     252293
#     265072
# 
# Disc length: 3632
# 
# Revision: 0
# Processed by: cddbd v1.5.2PL0 Copyright (c) Steve Scherf et al.
# Submitted via: fre:ac v1.0.17
# 
DISCID=590e2e16
DTITLE=Humphammer - Just Foolin' Around
DYEAR=0
DGENRE=Country
TTITLE0=Charming Betsy
TTITLE1=Long Handle Time in Cherokee
TTITLE2=Movin' On #2
TTITLE3=Ugly Girl Song
TTITLE4=The Little Brown Shack Out Back
TTITLE5=My Little
TTITLE6=Life Gets Tedius Don't It
TTITLE7=Mustace (sic) on a Cabbage Head
TTITLE8=Runnin Bare
TTITLE9=Smater than the Average Idiot
TTITLE10=Harold's Super Service
TTITLE11=Green Green Grass of Home
TTITLE12=Tale of Burnadene Schlechge
TTITLE13=Yellow Rose of Texas
TTITLE14=You All Billboard Song
TTITLE15=Diggin Em Bones
TTITLE16=Big Load Mouth
TTITLE17=May the Bird of Paradise
TTITLE18=Letter from Home
TTITLE19=Olp (sic) What a Pity
TTITLE20=Preachers Go Fishin
TTITLE21=Goin to the Picture Show
EXTD=Raymond Fairchild, banjo\nWayne Crow, bass
EXTT0=
EXTT1=
EXTT2=
EXTT3=
EXTT4=
EXTT5=
EXTT6=
EXTT7=
EXTT8=
EXTT9=
EXTT10=
EXTT11=
EXTT12=
EXTT13=
EXTT14=
EXTT15=
EXTT16=
EXTT17=
EXTT18=
EXTT19=
EXTT20=
EXTT21=
PLAYORDER=
